<svg width="133" height="33" viewBox="0 0 133 33" fill="none" xmlns="http://www.w3.org/2000/svg">
<g clip-path="url(#clip0_6_169)">
<path d="M13.4759 32.0617C12.2653 32.6604 10.9338 32.9786 9.58164 32.9924C6.9855 32.9924 4.73952 31.9952 2.84371 30.0007C0.947904 28.0062 0 23.8421 0 17.5084C0 10.6385 0.947904 6.01233 2.84371 3.63C4.73952 1.24768 7.03568 0.0587286 9.73219 0.0631608C10.9952 0.0993165 12.2505 0.272091 13.4759 0.578414V4.49761C12.6019 4.13359 11.6665 3.93733 10.7191 3.9192C9.03297 3.9192 7.59215 4.76909 6.39668 6.46885C5.20121 8.16861 4.60235 11.526 4.60012 16.5411C4.56105 18.881 4.69186 21.2206 4.99155 23.5418C5.25474 25.2283 5.85805 26.569 6.80149 27.564C7.25393 28.0511 7.80585 28.4365 8.42033 28.6945C9.0348 28.9525 9.69764 29.0771 10.3645 29.0599C11.4426 29.0041 12.4995 28.7399 13.4759 28.2821V32.0617Z" fill="#7E34F5"/>
<path d="M34.4892 32.6268H22.8434V0.628258H27.1926V29.0367H34.4993L34.4892 32.6268Z" fill="#7E34F5"/>
<path d="M41.1268 16.5411C41.1268 9.598 41.8138 5.10483 43.1877 3.06157C44.5616 1.01832 46.8243 -0.00221251 49.9758 3.60146e-06C53.5823 3.60146e-06 55.9788 1.14241 57.1654 3.42723C58.3519 5.71204 58.9463 9.82294 58.9486 15.7599C58.9486 21.0786 58.6831 24.7684 58.1523 26.8294C57.6215 28.8904 56.7037 30.4051 55.3989 31.3736C54.0897 32.3442 52.3154 32.8295 50.0762 32.8295C47.7677 32.8295 45.9979 32.3863 44.7668 31.4999C43.5356 30.6134 42.6223 29.1619 42.0268 27.1452C41.429 25.1286 41.1291 21.5938 41.1268 16.5411ZM54.3986 16.7904C54.3986 10.7183 54.0395 6.96637 53.3213 5.53476C52.6032 4.10315 51.5259 3.38845 50.0895 3.39066C48.3989 3.39066 47.2414 4.2483 46.6169 5.96357C45.9924 7.67885 45.679 10.5687 45.6768 14.633V16.3882C45.6768 20.9224 45.931 24.231 46.4396 26.3142C46.9481 28.3973 48.1647 29.4389 50.0895 29.4389C51.2705 29.4389 52.2876 28.8538 53.1306 27.6804C53.9737 26.507 54.3986 23.2725 54.3986 17.9705V16.7904Z" fill="#7E34F5"/>
<path d="M82.2971 32.0617C81.0865 32.6604 79.7551 32.9786 78.4029 32.9924C75.8067 32.9924 73.5619 31.9952 71.6683 30.0007C69.7747 28.0062 68.8268 23.8421 68.8246 17.5084C68.8246 10.6385 69.7725 6.01233 71.6683 3.63C73.5641 1.24768 75.8603 0.0587286 78.5568 0.0631608C79.8182 0.0948086 81.0724 0.263125 82.2971 0.565114V4.48432C81.4233 4.11999 80.4878 3.92371 79.5404 3.90591C77.8564 3.90591 76.4156 4.75579 75.2179 6.45555C74.0202 8.15531 73.4225 11.5127 73.4247 16.5278C73.3856 18.8677 73.5164 21.2073 73.8161 23.5285C74.0771 25.215 74.6793 26.5557 75.6227 27.5508C76.0752 28.0378 76.6271 28.4232 77.2416 28.6812C77.856 28.9392 78.5189 29.0638 79.1857 29.0466C80.2639 28.9908 81.3207 28.7266 82.2971 28.2688V32.0617Z" fill="#7E34F5"/>
<path d="M108.299 32.6268H103.327L96.3417 16.3749H96.2145V32.6268H91.8185V0.628258H96.2145V16.4779H96.3417L103.839 0.628258H108.248L100.4 16.1588L108.299 32.6268Z" fill="#7E34F5"/>
<path d="M114.809 16.5411C114.809 9.598 115.496 5.10483 116.87 3.06157C118.244 1.01832 120.507 -0.00221251 123.658 3.60146e-06C127.265 3.60146e-06 129.662 1.14241 130.851 3.42723C132.04 5.71204 132.633 9.82294 132.631 15.7599C132.631 21.0786 132.365 24.7684 131.835 26.8294C131.304 28.8904 130.386 30.4051 129.081 31.3736C127.772 32.3442 125.998 32.8295 123.758 32.8295C121.45 32.8295 119.68 32.3863 118.449 31.4999C117.218 30.6134 116.305 29.1619 115.709 27.1452C115.111 25.1286 114.811 21.5938 114.809 16.5411ZM128.081 16.7904C128.081 10.7183 127.722 6.96637 127.004 5.53476C126.285 4.10315 125.208 3.38845 123.772 3.39066C122.083 3.39066 120.926 4.2483 120.299 5.96357C119.672 7.67885 119.359 10.5687 119.359 14.633V16.3882C119.359 20.9224 119.613 24.231 120.122 26.3142C120.63 28.3973 121.847 29.4389 123.772 29.4389C124.953 29.4389 125.97 28.8538 126.813 27.6804C127.656 26.507 128.081 23.2725 128.081 17.9705V16.7904Z" fill="#7E34F5"/>
</g>
<defs>
<clipPath id="clip0_6_169">
<rect width="133" height="33" fill="white"/>
</clipPath>
</defs>
</svg>
