<svg width="20" height="20" viewBox="0 0 20 20" fill="none" xmlns="http://www.w3.org/2000/svg">
<path d="M13.0075 13.86L14.6875 12.18C14.9138 11.9566 15.2 11.8036 15.5116 11.7397C15.8231 11.6758 16.1465 11.7037 16.4425 11.82L18.49 12.6375C18.7891 12.7589 19.0456 12.9662 19.2271 13.2331C19.4086 13.5 19.507 13.8147 19.51 14.1375V17.8875C19.5082 18.1071 19.4621 18.3241 19.3743 18.5253C19.2865 18.7266 19.1589 18.908 18.9991 19.0587C18.8393 19.2094 18.6507 19.3261 18.4447 19.402C18.2386 19.4778 18.0193 19.5112 17.8 19.5C3.45249 18.6075 0.557488 6.45753 0.0099881 1.80753C-0.0154272 1.57918 0.00779408 1.34804 0.0781242 1.12931C0.148454 0.910584 0.264299 0.709225 0.418038 0.538483C0.571777 0.36774 0.759926 0.231484 0.970106 0.138679C1.18029 0.0458728 1.40773 -0.00137937 1.63749 3.06518e-05H5.25999C5.58324 0.000987492 5.89882 0.0986312 6.16613 0.280403C6.43344 0.462174 6.64026 0.71976 6.75999 1.02003L7.57749 3.06753C7.69768 3.36233 7.72834 3.68601 7.66565 3.99814C7.60296 4.31027 7.44969 4.597 7.22499 4.82253L5.54499 6.50253C5.54499 6.50253 6.51249 13.05 13.0075 13.86Z" fill="#1E1E1E"/>
</svg>
